<svg width="30" height="30" viewBox="0 0 30 30" fill="none" xmlns="http://www.w3.org/2000/svg">
<path d="M3.44058 0.561424C3.06337 0.197107 2.55817 -0.00448123 2.03377 7.56053e-05C1.50938 0.00463244 1.00776 0.214971 0.636939 0.585787C0.266123 0.956603 0.0557846 1.45823 0.0512277 1.98262C0.0466709 2.50701 0.24826 3.01222 0.612576 3.38942L12.1626 14.9394L0.610576 26.4894C0.419555 26.6739 0.267191 26.8946 0.162373 27.1386C0.0575548 27.3826 0.00238315 27.6451 7.55141e-05 27.9106C-0.00223212 28.1762 0.0483709 28.4395 0.148933 28.6853C0.249494 28.9311 0.398001 29.1544 0.585786 29.3422C0.773571 29.53 0.996876 29.6785 1.24267 29.7791C1.48846 29.8796 1.75182 29.9302 2.01738 29.9279C2.28294 29.9256 2.54538 29.8704 2.78938 29.7656C3.03339 29.6608 3.25408 29.5084 3.43858 29.3174L14.9906 17.7674L26.5406 29.3174C26.9178 29.6817 27.423 29.8833 27.9474 29.8788C28.4718 29.8742 28.9734 29.6639 29.3442 29.2931C29.715 28.9222 29.9254 28.4206 29.9299 27.8962C29.9345 27.3718 29.7329 26.8666 29.3686 26.4894L17.8186 14.9394L29.3686 3.38942C29.7329 3.01222 29.9345 2.50701 29.9299 1.98262C29.9254 1.45823 29.715 0.956603 29.3442 0.585787C28.9734 0.214971 28.4718 0.00463244 27.9474 7.56053e-05C27.423 -0.00448123 26.9178 0.197107 26.5406 0.561424L14.9906 12.1114L3.44058 0.559424V0.561424Z" fill="black" fill-opacity="0.7"/>
</svg>
