<svg width="64" height="64" viewBox="0 0 64 64" fill="none" xmlns="http://www.w3.org/2000/svg">
<path d="M44.9341 0H19.0659C8.55294 0 0 8.55294 0 19.0659V44.9341C0 55.4471 8.55294 64 19.0659 64H44.9341C55.4471 64 64 55.4471 64 44.9341V19.0659C63.9999 8.55294 55.4469 0 44.9341 0ZM57.5616 44.9341C57.5616 51.908 51.908 57.5616 44.9341 57.5616H19.0659C12.092 57.5616 6.4384 51.908 6.4384 44.9341V19.0659C6.4384 12.0919 12.092 6.4384 19.0659 6.4384H44.9341C51.908 6.4384 57.5616 12.0919 57.5616 19.0659V44.9341Z" fill="white"/>
<path d="M31.9999 15.4473C22.8728 15.4473 15.4473 22.8728 15.4473 31.9998C15.4473 41.1269 22.8728 48.5525 31.9999 48.5525C41.1271 48.5525 48.5526 41.127 48.5526 31.9998C48.5526 22.8727 41.1271 15.4473 31.9999 15.4473ZM31.9999 42.1142C26.4139 42.1142 21.8857 37.5859 21.8857 31.9999C21.8857 26.4139 26.4141 21.8857 31.9999 21.8857C37.586 21.8857 42.1142 26.4139 42.1142 31.9999C42.1142 37.5858 37.5858 42.1142 31.9999 42.1142Z" fill="white"/>
<path d="M48.5848 19.5379C50.7753 19.5379 52.5511 17.7621 52.5511 15.5716C52.5511 13.381 50.7753 11.6052 48.5848 11.6052C46.3942 11.6052 44.6184 13.381 44.6184 15.5716C44.6184 17.7621 46.3942 19.5379 48.5848 19.5379Z" fill="white"/>
</svg>
