<svg width="31" height="83" viewBox="0 0 31 83" fill="none" xmlns="http://www.w3.org/2000/svg">
<path d="M30.9895 41.5651C30.9915 42.9479 30.6314 44.288 29.9715 45.3528L7.84007 80.862C7.08876 82.0706 6.00913 82.8307 4.83871 82.975C3.66828 83.1192 2.50292 82.6359 1.599 81.6314C0.695082 80.6269 0.126641 79.1833 0.0187299 77.6184C-0.0891817 76.0535 0.272275 74.4953 1.02359 73.2867L20.8533 41.5651L1.73179 9.84347C1.36412 9.23811 1.08955 8.54156 0.923868 7.79385C0.758184 7.04615 0.704654 6.26205 0.766352 5.4866C0.828051 4.71114 1.00376 3.95963 1.28339 3.27527C1.56301 2.5909 1.94104 1.98717 2.39574 1.49879C2.85085 0.956802 3.38478 0.546326 3.96406 0.293068C4.54335 0.0398102 5.1555 -0.0507584 5.76219 0.0270233C6.36887 0.104813 6.957 0.349266 7.48973 0.745094C8.02246 1.14092 8.48832 1.6796 8.85811 2.32735L30.2371 37.8366C30.7926 38.932 31.0576 40.2447 30.9895 41.5651Z" fill="white"/>
</svg>
