<svg width="31" height="83" viewBox="0 0 31 83" fill="none" xmlns="http://www.w3.org/2000/svg">
<path d="M0.0104733 41.4349C0.00845146 40.0521 0.368641 38.712 1.02851 37.6472L23.1599 2.13797C23.9112 0.929371 24.9909 0.169327 26.1613 0.0250429C27.3317 -0.119242 28.4971 0.364051 29.401 1.3686C30.3049 2.37315 30.8734 3.81667 30.9813 5.3816C31.0892 6.94653 30.7277 8.50468 29.9764 9.71328L10.1467 41.4349L29.2682 73.1565C29.6359 73.7619 29.9104 74.4584 30.0761 75.2061C30.2418 75.9538 30.2953 76.7379 30.2336 77.5134C30.1719 78.2889 29.9962 79.0404 29.7166 79.7247C29.437 80.4091 29.059 81.0128 28.6043 81.5012C28.1491 82.0432 27.6152 82.4537 27.0359 82.7069C26.4567 82.9602 25.8445 83.0508 25.2378 82.973C24.6311 82.8952 24.043 82.6507 23.5103 82.2549C22.9775 81.8591 22.5117 81.3204 22.1419 80.6727L0.762939 45.1634C0.207371 44.068 -0.0575638 42.7553 0.0104733 41.4349Z" fill="white" fill-opacity="0.8"/>
</svg>
