<svg width="64" height="64" viewBox="0 0 64 64" fill="none" xmlns="http://www.w3.org/2000/svg">
<path d="M30.1895 0.0370119C13.2872 0.841805 -0.051128 14.9182 0.000147338 31.8396C0.0157595 36.9935 1.25999 41.8581 3.45488 46.1563L0.0849429 62.5144C-0.0973523 63.3992 0.700706 64.174 1.57973 63.9658L17.6087 60.1683C21.7268 62.2196 26.3523 63.4044 31.2476 63.4791C48.5234 63.743 62.9284 50.0255 63.4669 32.7562C64.0441 14.2446 48.7659 -0.847678 30.1895 0.0370119ZM49.3155 49.3156C44.6213 54.0099 38.3799 56.5951 31.7414 56.5951C27.8543 56.5951 24.1328 55.7229 20.6799 54.003L18.4476 52.891L8.62021 55.2193L10.6888 45.1775L9.58909 43.0239C7.7966 39.5135 6.88772 35.7174 6.88772 31.7414C6.88772 25.1027 9.47292 18.8615 14.1671 14.1671C18.8194 9.51483 25.1625 6.88755 31.7419 6.88755C38.3804 6.8877 44.6214 9.47289 49.3157 14.167C54.0099 18.8612 56.5951 25.1024 56.5952 31.7409C56.5951 38.3204 53.9678 44.6635 49.3155 49.3156Z" fill="white"/>
<path d="M47.1461 38.6248L40.9978 36.8594C40.1895 36.6274 39.319 36.8567 38.7301 37.4568L37.2266 38.9887C36.5926 39.6346 35.6306 39.8421 34.7915 39.5026C31.8831 38.3256 25.7649 32.8858 24.2025 30.1649C23.7517 29.38 23.8262 28.3987 24.3797 27.6825L25.6924 25.9843C26.2066 25.319 26.3152 24.4254 25.9751 23.6563L23.3883 17.8058C22.7688 16.4046 20.9781 15.9967 19.8083 16.986C18.0923 18.4374 16.0563 20.6428 15.8088 23.0861C15.3724 27.3939 17.2198 32.8241 24.206 39.3445C32.2769 46.8774 38.74 47.8726 42.9481 46.8532C45.3349 46.2751 47.2424 43.9575 48.4462 42.0598C49.2669 40.766 48.6189 39.0477 47.1461 38.6248Z" fill="white"/>
</svg>
