<svg width="67" height="51" viewBox="0 0 67 51" fill="none" xmlns="http://www.w3.org/2000/svg">
<path d="M29.4346 14.1991L29.2019 14.6243L29.4346 14.1991C28.4667 13.6695 27.3177 13.6893 26.3689 14.2515L26.3688 14.2515C25.4195 14.8142 24.8508 15.8127 24.8508 16.916V32.2559C24.8508 33.3541 25.4159 34.3507 26.359 34.9141L26.6155 34.4849L26.359 34.9141C26.8498 35.2073 27.3968 35.356 27.947 35.356C28.4508 35.356 28.9541 35.2314 29.415 34.9832L43.5544 27.3803L43.5545 27.3803C44.5553 26.8418 45.1801 25.801 45.1848 24.6642V24.6639C45.1889 23.5268 44.5714 22.4814 43.5738 21.9354L43.3344 22.3728L43.5737 21.9354L29.4346 14.1991ZM38.6201 24.6397L29.6013 29.4896V19.7049L38.6201 24.6397Z" fill="white" stroke="white"/>
<path d="M65.5066 12.3619L65.5063 12.3593C65.4776 12.087 65.3254 10.7823 64.8949 9.2438C64.4684 7.71961 63.7499 5.89547 62.5506 4.6399C59.8496 1.76535 56.7774 1.41592 55.3498 1.25355L55.3468 1.2532L55.3466 1.25319C55.2297 1.23992 55.1281 1.22825 55.0385 1.2163L55.0385 1.2161L55.0245 1.21464L54.9127 1.20292L54.9048 1.20209L54.8969 1.20151C46.5204 0.592423 33.9354 0.503111 33.5061 0.500548L33.5044 0.500472L33.4827 0.499528L33.4609 0.500472L33.4592 0.500548C33.0299 0.503111 20.4441 0.592426 11.9926 1.20149L11.9847 1.20206L11.9769 1.20287L11.8641 1.21459L11.8566 1.21537L11.8492 1.21637C11.7795 1.22573 11.7043 1.23445 11.6177 1.24448C11.5984 1.24672 11.5786 1.24902 11.5581 1.25141L11.5569 1.25155C10.1411 1.41494 7.09782 1.76617 4.38959 4.74458C3.2494 5.98431 2.53983 7.77225 2.10739 9.26532C1.67092 10.7723 1.49778 12.0476 1.46455 12.3135L1.46451 12.3135L1.4638 12.3199L1.45647 12.3853L1.45634 12.3853L1.45533 12.3967C1.43601 12.6141 0.982666 17.7352 0.982666 22.8813V27.6704C0.982666 32.8165 1.43602 37.9377 1.45532 38.1555L1.45525 38.1555L1.45616 38.1641L1.45958 38.1963L1.45962 38.1967C1.48834 38.4653 1.64053 39.747 2.0698 41.2637C2.49502 42.766 3.21032 44.5662 4.40152 45.8209C6.94844 48.6055 10.1663 48.9738 11.8219 49.1633L11.8389 49.1652L11.8416 49.1655C12.1081 49.196 12.3126 49.2194 12.4464 49.2429L12.4553 49.2445L12.4643 49.2458L12.6123 49.2663L12.6229 49.2677L12.6335 49.2687C17.5381 49.7354 32.8491 49.9644 33.5228 49.974C33.5237 49.974 33.5245 49.9741 33.5253 49.9741L33.5395 49.9745L33.552 49.9748L33.5645 49.9745L33.5791 49.9741C33.9092 49.9722 46.563 49.8847 54.974 49.2731L54.9819 49.2725L54.9899 49.2717L55.1017 49.26L55.1017 49.2602L55.1152 49.2584C55.214 49.2453 55.3273 49.2333 55.46 49.2195L55.4612 49.2194L55.4652 49.219C56.873 49.0695 59.9023 48.7479 62.5758 45.8071C63.7159 44.5672 64.4256 42.7792 64.8581 41.2861C65.2946 39.7792 65.4678 38.5039 65.5009 38.2379L65.5015 38.2319L65.5089 38.1665L65.509 38.1665L65.51 38.155C65.5293 37.9372 65.9832 32.8166 65.9832 27.6704V22.8813C65.9827 17.7352 65.5293 12.6146 65.51 12.3968L65.012 12.4409L65.5095 12.3912L65.5066 12.3619ZM59.0712 42.6004L59.0692 42.6027C57.6054 44.2131 56.1294 44.3718 54.9603 44.4954C54.8201 44.5101 54.687 44.5247 54.5646 44.5398C46.423 45.1278 34.2023 45.2197 33.5702 45.2236C32.8518 45.2131 17.885 44.9827 13.1668 44.5472C12.9154 44.5068 12.6477 44.476 12.3794 44.4456C10.9673 44.2838 9.23185 44.0719 7.89608 42.6026L7.89612 42.6026L7.89149 42.5976L7.85682 42.5605L7.85686 42.5605L7.85218 42.5556C7.42974 42.1155 7.04621 41.2842 6.74593 40.3216C6.4525 39.381 6.26213 38.3939 6.18531 37.7087C6.15175 37.3256 5.73315 32.4299 5.73315 27.6704V22.8813C5.73315 18.202 6.13864 13.3783 6.18344 12.8638C6.2754 12.1654 6.48086 11.1698 6.78241 10.2211C7.09142 9.249 7.47756 8.40419 7.89413 7.95127L7.89607 7.94915C9.41045 6.28351 10.9837 6.09969 12.1035 5.97033L12.1038 5.9703L12.1315 5.96708C12.2246 5.95628 12.3159 5.9457 12.4016 5.93473C20.6041 5.34807 32.7968 5.2557 33.4699 5.2506L33.4794 5.25048C33.4805 5.25048 33.4817 5.25049 33.4829 5.2505C33.9873 5.25387 46.2967 5.34373 54.4863 5.93477C54.5845 5.947 54.6903 5.9592 54.8005 5.97189L54.8082 5.97279L54.8089 5.97286C55.969 6.10507 57.5899 6.29437 59.094 7.89862L59.0943 7.89898L59.1094 7.91511L59.1132 7.91899C59.5343 8.35775 59.918 9.1987 60.2188 10.1777C60.5125 11.134 60.7031 12.1406 60.78 12.8408C60.8119 13.2023 61.2322 18.1102 61.2322 22.8813V27.6704C61.2322 32.3554 60.8257 37.1847 60.7818 37.6899C60.7049 38.2804 60.51 39.2645 60.2094 40.2352C59.9009 41.2318 59.5067 42.1271 59.0712 42.6004Z" fill="white" stroke="white"/>
</svg>
