<svg width="140" height="140" viewBox="0 0 140 140" fill="none" xmlns="http://www.w3.org/2000/svg">
<path d="M134.917 128.117L134.935 128.099C139.68 123.354 139.68 115.63 134.935 110.885L134.935 110.885M134.917 128.117L125.563 137.355C124.788 138.119 123.783 138.5 122.775 138.5C121.747 138.5 120.727 138.106 119.95 137.32C118.41 135.761 118.426 133.247 119.985 131.707L118.959 130.667L119.986 131.707L125.459 126.301L128.058 123.734H124.404H36.6408C25.407 123.734 16.2659 114.593 16.2659 103.359V15.4631V11.8758L13.7123 14.3953L8.25646 19.7786C8.25644 19.7786 8.25642 19.7786 8.25641 19.7786C6.69606 21.318 4.183 21.301 2.64352 19.7406C1.10413 18.1802 1.12111 15.6672 2.68148 14.1277C2.6815 14.1277 2.68152 14.1276 2.68154 14.1276L11.9207 5.01347L11.9207 5.01343C16.6526 0.345234 24.3635 0.345234 29.0954 5.01343L29.0954 5.01347L38.3345 14.1276C38.3346 14.1276 38.3346 14.1277 38.3346 14.1277C39.895 15.6672 39.9119 18.1802 38.3725 19.7406C37.5953 20.5277 36.5739 20.9218 35.5471 20.9218C34.5381 20.9218 33.5338 20.5417 32.7596 19.7786C32.7595 19.7785 32.7594 19.7784 32.7593 19.7782L26.7569 13.8559L24.2033 11.3365V14.9237V103.359C24.2033 110.218 29.7818 115.797 36.6408 115.797H124.959H128.612L126.013 113.229L119.985 107.277C118.426 105.736 118.41 103.223 119.949 101.664C121.49 100.105 124.003 100.089 125.563 101.629L134.91 110.861C134.911 110.861 134.912 110.862 134.913 110.863C134.922 110.872 134.93 110.88 134.935 110.885M134.917 128.117L134.914 128.12C134.913 128.121 134.913 128.121 134.912 128.122C134.911 128.122 134.911 128.123 134.91 128.123L134.9 128.134L125.563 137.355L134.917 128.117ZM134.935 110.885C134.938 110.887 134.94 110.889 134.941 110.89L134.938 110.888L134.938 110.888C134.937 110.887 134.936 110.886 134.935 110.885ZM134.935 110.885L135.996 109.824L135.636 110.139L134.917 110.867C134.925 110.874 134.931 110.881 134.935 110.885ZM134.917 128.117C134.925 128.11 134.931 128.103 134.935 128.099M134.917 128.117L134.935 128.099M134.917 128.117L135.636 128.845L135.971 129.184L135.603 128.815L134.911 128.124L134.917 128.117ZM134.935 128.099C134.938 128.097 134.94 128.095 134.941 128.094L134.938 128.096C134.937 128.097 134.936 128.098 134.935 128.099ZM134.911 110.86C134.899 110.848 134.884 110.832 134.867 110.812L135.603 110.168L134.911 110.86ZM60.2941 53.5137L61.2502 54.3045L62.2062 53.5137C64.55 51.575 67.5506 50.411 70.8204 50.411C78.2849 50.411 84.3595 56.4857 84.3595 63.9501V88.2902C84.3595 90.4824 82.5829 92.259 80.3907 92.259C78.1985 92.259 76.422 90.4824 76.422 88.2902V63.9501C76.422 60.8604 73.9101 58.3485 70.8204 58.3485C67.7308 58.3485 65.2189 60.8604 65.2189 63.9501V88.3201C65.2189 90.5123 63.4423 92.2889 61.2502 92.2889C59.058 92.2889 57.2814 90.5123 57.2814 88.3201V63.9501C57.2814 60.8604 54.7695 58.3485 51.6799 58.3485C48.5902 58.3485 46.0783 60.8604 46.0783 63.9501V88.3201C46.0783 90.5123 44.3018 92.2889 42.1096 92.2889C39.9174 92.2889 38.1408 90.5123 38.1408 88.3201V54.1405C38.1408 51.9483 39.9174 50.1718 42.1096 50.1718C43.1385 50.1718 44.0742 50.5663 44.7849 51.2169L45.4977 51.8694L46.3865 51.4902C48.0119 50.7966 49.8008 50.411 51.6799 50.411C54.9497 50.411 57.9503 51.575 60.2941 53.5137ZM108.325 42.4364L108.391 42.1937L108.373 41.9429C108.262 40.3273 106.911 38.9931 105.251 38.969C105.244 38.9685 105.236 38.968 105.228 38.9675C105.203 38.9661 105.165 38.9644 105.121 38.9644C105.077 38.9644 105.04 38.966 105.015 38.9674C105.006 38.9679 104.997 38.9685 104.99 38.969C103.262 38.994 101.859 40.442 101.859 42.1595C101.859 44.3508 100.083 46.1282 97.8907 46.1282C95.6987 46.1282 93.922 44.3508 93.922 42.1595C93.922 36.0365 98.8894 31.0528 104.996 31.0313C105.001 31.0316 105.007 31.032 105.013 31.0323C105.038 31.0338 105.075 31.0355 105.12 31.0355C105.163 31.0355 105.2 31.0339 105.226 31.0324C105.232 31.032 105.239 31.0317 105.245 31.0313C111.351 31.0526 116.319 36.0364 116.319 42.1595C116.319 45.2347 114.458 49.1286 109.632 54.8101L107.533 57.2811H110.775H112.656C114.849 57.2811 116.625 59.0577 116.625 61.2499C116.625 63.4421 114.849 65.2186 112.656 65.2186H97.8907C96.2506 65.2186 94.7794 64.2094 94.1888 62.6793L94.1887 62.6791C93.598 61.1498 94.009 59.4135 95.2234 58.3115C95.3959 58.1547 98.5679 55.2514 101.8 51.6976L101.8 51.6973C107.102 45.8647 108.126 43.176 108.325 42.4364ZM52.7736 1.5H123.594C131.826 1.5 138.5 8.17384 138.5 16.4062V87.4998C138.5 89.6971 136.714 91.4763 134.516 91.4686C132.331 91.4608 130.563 89.6859 130.563 87.4998V16.4062C130.563 12.5572 127.443 9.43748 123.594 9.43748H52.7736C50.5882 9.43748 48.8137 7.66978 48.8049 5.48374C48.7971 3.28579 50.5763 1.5 52.7736 1.5Z" fill="url(#paint0_linear)" stroke="white" stroke-width="3"/>
<defs>
<linearGradient id="paint0_linear" x1="70" y1="0" x2="70" y2="140" gradientUnits="userSpaceOnUse">
<stop stop-color="#FFE601"/>
<stop offset="0.953125" stop-color="#EC9F05"/>
</linearGradient>
</defs>
</svg>
