<svg width="140" height="140" viewBox="0 0 140 140" fill="none" xmlns="http://www.w3.org/2000/svg">
<g clip-path="url(#clip0)">
<path d="M134.899 128.134L125.562 137.355M134.899 128.134L38.3719 19.7402C39.911 18.1799 39.8939 15.6671 38.3336 14.1277C38.3336 14.1277 38.3336 14.1276 38.3336 14.1276L29.0944 5.01347L29.0944 5.01343C24.3625 0.345234 16.6516 0.345234 11.9197 5.01343L11.9197 5.01347L2.68056 14.1276C2.68054 14.1276 2.68052 14.1277 2.6805 14.1277C1.12014 15.6672 1.10315 18.1802 2.64255 19.7406C4.18203 21.301 6.69509 21.318 8.25543 19.7786C8.25545 19.7786 8.25547 19.7786 8.25548 19.7786L13.7114 14.3953L16.2649 11.8758V15.4631V103.359C16.2649 114.593 25.4061 123.734 36.6398 123.734H124.404H128.057L125.458 126.301L119.985 131.707L118.931 130.64L119.985 131.707C118.425 133.247 118.409 135.761 119.949 137.32M134.899 128.134L134.866 128.172C134.883 128.152 134.898 128.136 134.91 128.124L135.602 128.815L134.899 128.134ZM125.562 137.355C124.787 138.119 123.782 138.5 122.774 138.5C121.746 138.5 120.726 138.106 119.949 137.32M125.562 137.355L126.616 138.422L125.562 137.355L125.562 137.355ZM119.949 137.32L118.881 138.374L119.948 137.32C119.949 137.32 119.949 137.32 119.949 137.32ZM134.899 110.85L134.909 110.861L38.3716 19.7406C37.5943 20.5277 36.5729 20.9218 35.5461 20.9218C34.537 20.9218 33.5325 20.5416 32.7583 19.7782L26.7559 13.8559L24.2024 11.3365V14.9237V103.359C24.2024 110.218 29.7808 115.797 36.6398 115.797H124.958H128.611L126.012 113.229L119.985 107.277C118.425 105.736 118.409 103.223 119.948 101.664C121.489 100.105 124.002 100.089 125.562 101.629L134.899 110.85ZM134.934 128.099L134.916 128.117V110.867L134.934 110.885C139.679 115.63 139.679 123.354 134.934 128.099ZM134.94 110.89C134.939 110.889 134.937 110.887 134.934 110.885C134.935 110.886 134.936 110.887 134.937 110.888L134.937 110.888L134.94 110.89ZM60.2931 53.5137L61.2492 54.3045L62.2052 53.5137C64.549 51.575 67.5496 50.411 70.8195 50.411C78.2839 50.411 84.3585 56.4857 84.3585 63.9501V88.2902C84.3585 90.4824 82.582 92.259 80.3898 92.259C78.1976 92.259 76.421 90.4824 76.421 88.2902V63.9501C76.421 60.8604 73.9091 58.3485 70.8195 58.3485C67.7298 58.3485 65.2179 60.8604 65.2179 63.9501V88.3201C65.2179 90.5123 63.4414 92.2889 61.2492 92.2889C59.057 92.2889 57.2804 90.5123 57.2804 88.3201V63.9501C57.2804 60.8604 54.7685 58.3485 51.6789 58.3485C48.5893 58.3485 46.0773 60.8604 46.0773 63.9501V88.3201C46.0773 90.5123 44.3008 92.2889 42.1086 92.2889C39.9164 92.2889 38.1398 90.5123 38.1398 88.3201V54.1405C38.1398 51.9483 39.9164 50.1718 42.1086 50.1718C43.1375 50.1718 44.0732 50.5663 44.7839 51.2169L45.4967 51.8694L46.3855 51.4902C48.0109 50.7966 49.7998 50.411 51.6789 50.411C54.9488 50.411 57.9493 51.575 60.2931 53.5137ZM108.324 42.4363L108.39 42.1937L108.372 41.9429C108.261 40.3273 106.91 38.9931 105.25 38.969C105.243 38.9685 105.235 38.968 105.227 38.9675C105.202 38.9661 105.164 38.9644 105.12 38.9644C105.076 38.9644 105.039 38.966 105.014 38.9674C105.005 38.9679 104.996 38.9685 104.989 38.969C103.261 38.994 101.858 40.442 101.858 42.1595C101.858 44.3508 100.082 46.1282 97.8897 46.1282C95.6977 46.1282 93.921 44.3508 93.921 42.1595C93.921 36.0365 98.8884 31.0528 104.995 31.0313C105 31.0316 105.006 31.032 105.012 31.0323C105.037 31.0338 105.074 31.0355 105.119 31.0355C105.134 31.0355 105.149 31.0353 105.163 31.0349C105.187 31.0343 105.208 31.0333 105.225 31.0324C105.231 31.032 105.238 31.0317 105.244 31.0313C111.35 31.0526 116.318 36.0364 116.318 42.1595C116.318 45.2347 114.457 49.1286 109.631 54.8101L107.532 57.2811H110.774H112.655C114.848 57.2811 116.624 59.0577 116.624 61.2499C116.624 63.4421 114.848 65.2186 112.655 65.2186H97.8897C96.2497 65.2186 94.7784 64.2094 94.1878 62.6793L94.1877 62.6791C93.5971 61.1498 94.008 59.4135 95.2224 58.3115C95.3949 58.1548 98.5669 55.2515 101.799 51.6976L101.799 51.6973C107.101 45.8647 108.125 43.176 108.324 42.4363ZM52.7726 1.5H123.593C131.825 1.5 138.499 8.17384 138.499 16.4062V87.4998C138.499 89.6971 136.713 91.4763 134.515 91.4686C132.33 91.4608 130.562 89.6859 130.562 87.4998V16.4062C130.562 12.5572 127.442 9.43748 123.593 9.43748H52.7726C50.5872 9.43748 48.8127 7.66978 48.8039 5.48374C48.7961 3.28579 50.5754 1.5 52.7726 1.5Z" fill="url(#paint0_linear)" stroke="white" stroke-width="3"/>
</g>
<defs>
<linearGradient id="paint0_linear" x1="69.999" y1="0" x2="69.999" y2="140" gradientUnits="userSpaceOnUse">
<stop stop-color="#FFE601"/>
<stop offset="0.953125" stop-color="#EC9F05"/>
</linearGradient>
<clipPath id="clip0">
<rect width="140" height="140" fill="white"/>
</clipPath>
</defs>
</svg>
