<svg width="140" height="140" viewBox="0 0 140 140" fill="none" xmlns="http://www.w3.org/2000/svg">
<path d="M77.6465 118.06C76.288 118.06 75.1855 119.162 75.1855 120.521C75.1855 121.879 76.288 122.981 77.6465 122.981C79.0049 122.981 80.1074 121.879 80.1074 120.521C80.1074 119.162 79.0049 118.06 77.6465 118.06Z" fill="url(#paint0_linear)"/>
<path d="M43.0703 56.2901C41.7111 56.2901 40.6094 57.3919 40.6094 58.751V105.755C40.6094 107.114 41.7111 108.216 43.0703 108.216C44.4295 108.216 45.5312 107.114 45.5312 105.755V58.751C45.5312 57.3919 44.4295 56.2901 43.0703 56.2901Z" fill="url(#paint1_linear)"/>
<path d="M62.7578 56.2901C61.3986 56.2901 60.2969 57.3919 60.2969 58.751V105.755C60.2969 107.114 61.3986 108.216 62.7578 108.216C64.117 108.216 65.2188 107.114 65.2188 105.755V58.751C65.2188 57.3919 64.117 56.2901 62.7578 56.2901Z" fill="url(#paint2_linear)"/>
<path d="M112.223 46.6211H99.918V39.1745C103.775 36.2827 105.609 31.3948 104.522 26.5686C103.505 22.043 99.7688 18.3496 95.2272 17.3783C92.8128 16.8602 90.3811 17.0436 88.1655 17.886C85.9438 14.3833 82.0422 12.168 77.7695 12.168C76.1591 12.168 74.5853 12.4803 73.1302 13.0812C69.0111 9.19565 63.5805 7 57.959 7C50.523 7 43.5881 10.7881 39.4946 16.9862C26.6313 16.2745 16 26.4798 16 39.0636V68.5948C16 72.6657 19.3671 75.9776 23.5059 75.9776C24.4137 75.9776 25.2836 75.8125 26.0898 75.5118V120.695C26.0898 127.48 31.6097 133 38.3945 133H87.6133C94.3981 133 99.918 127.48 99.918 120.695V113.312H112.223C119.007 113.312 124.527 107.793 124.527 101.008V58.9258C124.527 52.141 119.007 46.6211 112.223 46.6211ZM94.9961 118.234H87.4878C86.1286 118.234 85.0268 119.336 85.0268 120.695C85.0268 122.054 86.1286 123.132 87.4878 123.132H94.5728C93.5569 125.996 90.8214 128.078 87.6133 128.078H38.3945C35.1865 128.078 32.4509 126.021 31.435 123.156H67.8052C69.1644 123.156 70.2661 122.054 70.2661 120.695C70.2661 119.336 69.1644 118.234 67.8052 118.234H31.0117V68.5407V51.1753C36.5397 50.3408 41.3265 46.8593 43.843 41.6995C44.3564 41.6995 44.8087 41.8771 45.1496 42.2116C47.927 44.9427 51.6021 46.4466 55.498 46.4466C59.536 46.4466 63.3054 44.8482 66.1133 41.9443C66.2634 41.7888 66.4758 41.6995 66.6953 41.6995C70.5263 41.6995 73.033 42.5177 74.1463 44.1311C75.064 45.4613 75.0632 47.3094 75.0625 48.7946V58.7513C75.0625 61.9594 77.1201 64.695 79.9844 65.7108V105.755C79.9844 107.114 81.0861 108.216 82.4453 108.216C83.8045 108.216 84.9062 107.114 84.9062 105.755V65.7106C87.7705 64.6947 89.8281 61.9594 89.8281 58.7511V41.4103C91.552 41.7543 93.3113 41.7566 94.9961 41.412V118.234ZM88.4827 35.7799C87.7198 35.3918 86.8103 35.428 86.0804 35.8757C85.3507 36.3231 84.906 37.1174 84.906 37.9734V58.7511C84.906 60.108 83.802 61.212 82.4451 61.212C81.0881 61.212 79.9841 60.108 79.9841 58.7511V48.7961C79.9849 46.8578 79.9861 43.9286 78.1972 41.3357C76.1106 38.311 72.2408 36.7773 66.6953 36.7773C65.1474 36.7773 63.6447 37.4145 62.5735 38.5244C60.7027 40.4592 58.1898 41.5245 55.498 41.5245C52.901 41.5245 50.4514 40.5222 48.5988 38.7001C47.3356 37.46 45.6467 36.7773 43.843 36.7773C41.9779 36.7773 40.2444 37.8594 39.4266 39.5341C37.3639 43.758 33.1882 46.4067 28.5296 46.4466C27.1788 46.4582 26.0896 47.5565 26.0896 48.9076V68.4782C26.003 69.9274 24.8761 71.0557 23.5059 71.0557C22.1053 71.0557 20.9219 69.9286 20.9219 68.5948V39.0636C20.9219 29.5653 28.694 21.8734 38.2486 21.8734C38.9911 21.8734 39.7375 21.9207 40.4834 22.0164C41.4788 22.1441 42.4516 21.6544 42.9426 20.7795C46.0079 15.316 51.7619 11.9219 57.959 11.9219C62.8144 11.9219 67.4956 14.042 70.8019 17.7388C71.6032 18.6351 72.935 18.8211 73.9516 18.1781C75.077 17.4661 76.3973 17.0898 77.7695 17.0898C80.9023 17.0898 83.7024 19.0736 84.7372 22.0257C84.9889 22.7443 85.5594 23.3062 86.2819 23.5469C87.0042 23.7875 87.7976 23.6802 88.4301 23.256C90.1074 22.1313 92.1544 21.7531 94.1958 22.1911C96.8536 22.7596 99.1251 25.0035 99.7196 27.6492C101.12 33.8665 94.7473 38.9666 88.4827 35.7799ZM99.918 61.3867H109.762V98.5469H99.918V61.3867ZM119.605 101.008C119.605 105.079 116.294 108.391 112.223 108.391H99.918V103.469H112.223C113.582 103.469 114.684 102.367 114.684 101.008V58.9258C114.684 57.5666 113.582 56.4648 112.223 56.4648H99.918V51.543H112.223C116.294 51.543 119.605 54.8549 119.605 58.9258V101.008Z" fill="url(#paint3_linear)"/>
<defs>
<linearGradient id="paint0_linear" x1="77.6465" y1="118.06" x2="77.6465" y2="122.981" gradientUnits="userSpaceOnUse">
<stop stop-color="#FFE601"/>
<stop offset="0.953125" stop-color="#EC9F05"/>
</linearGradient>
<linearGradient id="paint1_linear" x1="43.0703" y1="56.2901" x2="43.0703" y2="108.216" gradientUnits="userSpaceOnUse">
<stop stop-color="#FFE601"/>
<stop offset="0.953125" stop-color="#EC9F05"/>
</linearGradient>
<linearGradient id="paint2_linear" x1="62.7578" y1="56.2901" x2="62.7578" y2="108.216" gradientUnits="userSpaceOnUse">
<stop stop-color="#FFE601"/>
<stop offset="0.953125" stop-color="#EC9F05"/>
</linearGradient>
<linearGradient id="paint3_linear" x1="70.2637" y1="7" x2="70.2637" y2="133" gradientUnits="userSpaceOnUse">
<stop stop-color="#FFE601"/>
<stop offset="0.953125" stop-color="#EC9F05"/>
</linearGradient>
</defs>
</svg>
