<svg width="140" height="140" viewBox="0 0 140 140" fill="none" xmlns="http://www.w3.org/2000/svg">
<path d="M135.215 9.5528H4.78516C2.14676 9.5528 0 11.6996 0 14.338V31.1803C0 33.8319 4.10156 33.8319 4.10156 31.1803V14.338C4.10156 13.9612 4.40809 13.6544 4.78516 13.6544H135.215C135.592 13.6544 135.898 13.9612 135.898 14.338V114.345C135.898 114.722 135.592 115.028 135.215 115.028H108.934V110.761H129.561C130.694 110.761 131.611 109.843 131.611 108.71V87.2347C131.611 84.5832 127.51 84.5832 127.51 87.2347V106.659H108.934V97.5603C109.001 97.566 109.068 97.5718 109.131 97.5775C110.834 97.7271 112.951 97.9133 114.418 96.4436C115.884 94.9755 115.698 92.8558 115.549 91.1526C115.389 89.3246 115.562 88.8242 116.966 87.6564C120.584 84.6486 120.651 81.428 116.966 78.365C115.562 77.1963 115.39 76.6965 115.549 74.8683C115.951 70.2808 113.808 68.0326 109.131 68.4436C107.306 68.6038 106.811 68.4305 105.647 67.0253C102.644 63.3995 99.4213 63.3325 96.3624 67.0253C95.1986 68.4302 94.7037 68.6044 92.8785 68.4436C88.2878 68.0403 86.0508 70.1949 86.4604 74.8683C86.6201 76.6967 86.4481 77.1963 85.0432 78.365C81.4259 81.3725 81.3589 84.5936 85.0432 87.6564C86.4481 88.8251 86.6201 89.3249 86.4604 91.1531C86.0297 96.0665 88.3764 97.9663 93.0748 97.5606V106.66H12.4904V22.0229H127.51V76.2972C127.51 78.9488 131.611 78.9488 131.611 76.2972V19.9721C131.611 18.8396 130.694 17.9213 129.561 17.9213H10.4396C9.30672 17.9213 8.38879 18.8396 8.38879 19.9721V108.71C8.38879 109.843 9.30672 110.761 10.4396 110.761H93.0748V115.028H4.78516C4.40809 115.028 4.10156 114.722 4.10156 114.345V41.5707C4.10156 38.9192 0 38.9192 0 41.5707V114.345C0 116.983 2.14676 119.13 4.78516 119.13H93.0748V128.413C93.3669 130.099 94.3389 130.718 95.9905 130.272L101.005 127.94L106.019 130.272C107.259 130.849 108.934 129.937 108.934 128.413V119.13H135.215C137.853 119.13 140 116.983 140 114.345V14.338C140 11.6993 137.853 9.5528 135.215 9.5528ZM92.519 93.4913C90.466 93.672 90.3664 93.5621 90.5458 91.5102C90.8214 88.361 90.0971 86.5235 87.6649 84.5017C86.0007 83.1179 86.001 82.9021 87.6649 81.5183C90.0971 79.4965 90.8217 77.659 90.5458 74.5101C90.3664 72.4579 90.466 72.3491 92.519 72.5287C95.6684 72.8063 97.5034 72.0765 99.5206 69.641C100.899 67.9774 101.11 67.9774 102.488 69.641C104.506 72.0765 106.34 72.8052 109.49 72.5287C111.543 72.348 111.642 72.4579 111.463 74.5098C111.187 77.659 111.912 79.4962 114.344 81.518C116.008 82.9019 116.009 83.1181 114.344 84.5017C111.911 86.5238 111.187 88.3605 111.463 91.5097C111.643 93.5615 111.543 93.6717 109.49 93.4913C108.202 93.3781 106.741 93.2495 105.454 93.7838C104.209 94.3009 103.334 95.3572 102.488 96.379C102.089 96.8603 101.362 97.7388 101.004 97.8961C100.647 97.7388 99.919 96.8603 99.5203 96.379C98.674 95.3575 97.799 94.3009 96.5538 93.7838C95.2265 93.3792 93.8815 93.2815 92.519 93.4913ZM101.869 123.819C101.321 123.564 100.688 123.564 100.14 123.819L97.1764 125.198V99.946C98.1496 101.016 99.3502 102.009 101.005 102.009C102.659 102.009 103.859 101.016 104.833 99.9463V125.198L101.869 123.819Z" fill="url(#paint0_linear)"/>
<path d="M26.5953 39.1893H97.2917C99.9433 39.1893 99.9433 35.0878 97.2917 35.0878H26.5953C23.9435 35.0878 23.9435 39.1893 26.5953 39.1893Z" fill="url(#paint1_linear)"/>
<path d="M115.455 49.6122C115.455 48.4797 114.537 47.5615 113.405 47.5615H26.5953C23.9438 47.5615 23.9438 51.663 26.5953 51.663H113.405C114.537 51.663 115.455 50.7448 115.455 49.6122Z" fill="url(#paint2_linear)"/>
<path d="M77.9671 62.0856C77.9671 60.9531 77.0492 60.0349 75.9164 60.0349H26.5953C23.9438 60.0349 23.9438 64.1364 26.5953 64.1364H75.9164C77.0489 64.1364 77.9671 63.2182 77.9671 62.0856Z" fill="url(#paint3_linear)"/>
<path d="M51.0374 90.6713C49.9193 90.6732 48.8009 90.6746 47.6828 90.6754C45.5317 90.677 44.3474 90.1036 43.908 87.8226C43.5069 85.7404 40.5035 86.0056 39.953 87.8226C39.7094 88.6274 38.4789 90.9311 37.404 90.7427C36.8345 90.6429 36.5856 89.7643 36.3751 89.3093C35.9652 88.4236 35.6666 87.4849 35.411 86.5443C34.3314 82.5702 34.116 78.4207 33.4406 74.3717C33.049 72.0237 29.47 72.6876 29.4123 74.9169C29.2285 82.0184 28.0675 89.0225 25.5393 95.6788C24.6012 98.1487 28.5646 99.2168 29.4943 96.7692C30.4691 94.2027 31.2429 91.5747 31.8434 88.9076C32.1655 89.8794 32.5497 90.8326 33.0187 91.7599C34.2163 94.1267 36.6589 95.527 39.2724 94.4743C40.2051 94.0986 41.0561 93.4418 41.7804 92.6425C43.7207 94.8801 46.6074 94.7786 49.3005 94.7753C53.3602 94.7701 57.4199 94.7606 61.4799 94.7494C64.1189 94.742 64.1238 90.6404 61.4799 90.6478C57.9991 90.6576 54.5182 90.6656 51.0374 90.6713Z" fill="url(#paint4_linear)"/>
<path d="M101.004 91.0202C105.421 91.0202 109.015 87.427 109.015 83.0101C109.015 78.5933 105.421 75.0001 101.004 75.0001C96.5879 75.0001 92.9944 78.5936 92.9944 83.0101C92.9944 87.4267 96.5876 91.0202 101.004 91.0202ZM101.004 79.1016C103.16 79.1016 104.913 80.8552 104.913 83.0101C104.913 85.1651 103.16 86.9187 101.004 86.9187C98.8492 86.9187 97.096 85.1654 97.096 83.0101C97.096 80.8549 98.8492 79.1016 101.004 79.1016Z" fill="url(#paint5_linear)"/>
<defs>
<linearGradient id="paint0_linear" x1="70" y1="9.5528" x2="70" y2="130.447" gradientUnits="userSpaceOnUse">
<stop stop-color="#FFE601"/>
<stop offset="0.953125" stop-color="#EC9F05"/>
</linearGradient>
<linearGradient id="paint1_linear" x1="61.9434" y1="35.0878" x2="61.9434" y2="39.1893" gradientUnits="userSpaceOnUse">
<stop stop-color="#FFE601"/>
<stop offset="0.953125" stop-color="#EC9F05"/>
</linearGradient>
<linearGradient id="paint2_linear" x1="70.031" y1="47.5615" x2="70.031" y2="51.663" gradientUnits="userSpaceOnUse">
<stop stop-color="#FFE601"/>
<stop offset="0.953125" stop-color="#EC9F05"/>
</linearGradient>
<linearGradient id="paint3_linear" x1="51.2869" y1="60.0349" x2="51.2869" y2="64.1364" gradientUnits="userSpaceOnUse">
<stop stop-color="#FFE601"/>
<stop offset="0.953125" stop-color="#EC9F05"/>
</linearGradient>
<linearGradient id="paint4_linear" x1="44.4289" y1="72.8983" x2="44.4289" y2="98.1543" gradientUnits="userSpaceOnUse">
<stop stop-color="#FFE601"/>
<stop offset="0.953125" stop-color="#EC9F05"/>
</linearGradient>
<linearGradient id="paint5_linear" x1="101.005" y1="75.0001" x2="101.005" y2="91.0202" gradientUnits="userSpaceOnUse">
<stop stop-color="#FFE601"/>
<stop offset="0.953125" stop-color="#EC9F05"/>
</linearGradient>
</defs>
</svg>
