<svg width="140" height="140" viewBox="0 0 140 140" fill="none" xmlns="http://www.w3.org/2000/svg">
<g clip-path="url(#clip0)">
<path d="M137.666 81.6672H130.509L125.999 16.1755C125.915 14.9493 124.895 13.9991 123.666 14.0009H109.666C108.436 13.9991 107.417 14.9493 107.332 16.1755L102.822 81.6672H98V67.6672C98 66.3795 96.955 65.3336 95.6673 65.3336C95.1358 65.3328 94.6214 65.5139 94.2078 65.8455L74.6664 81.4784V67.6672C74.6664 66.3795 73.6222 65.3336 72.3336 65.3336C71.803 65.3328 71.2886 65.5139 70.875 65.8455L51.3336 81.4784V67.6672C51.3336 66.3795 50.2894 65.3336 49.0009 65.3336C48.4702 65.3328 47.955 65.5139 47.5422 65.8455L28.0009 81.4784V67.6672C28 66.3795 26.955 65.3345 25.6672 65.3345C25.2426 65.3345 24.8281 65.4498 24.465 65.6677L1.13135 79.6677C0.42981 80.0898 0 80.8478 0 81.6672V137.667C0 138.956 1.04504 140 2.33362 140H137.666C138.954 140 139.999 138.956 139.999 137.667V84.0008C139.999 82.7114 138.954 81.6672 137.666 81.6672ZM111.844 18.6672H121.487L125.833 81.6672H107.499L111.844 18.6672ZM79.3319 135.334V107.334H93.3319V135.334H79.3319ZM135.333 135.334H98V105C98 103.712 96.9541 102.667 95.6655 102.667H76.9992C75.7106 102.667 74.6655 103.712 74.6655 105V135.334H4.66638V82.9883L23.3328 71.7884V86.3336C23.3328 87.623 24.377 88.6672 25.6655 88.6689C26.1953 88.6689 26.7106 88.4878 27.125 88.1562L46.6664 72.5233V86.3336C46.6664 87.623 47.7097 88.6672 48.9992 88.6689C49.5289 88.6689 50.0433 88.4878 50.4578 88.1571L69.9992 72.5242V86.3345C69.9992 87.623 71.0425 88.6689 72.3319 88.6689C72.8617 88.6689 73.3761 88.4878 73.7905 88.1571L93.3319 72.5242V84.0008C93.3319 85.2903 94.377 86.3345 95.6655 86.3345H135.331V135.334H135.333Z" fill="url(#paint0_linear)"/>
<path d="M79.3164 4.66811C80.1649 5.1227 80.9314 5.71572 81.5851 6.42238C82.8933 8.01772 84.7561 9.05678 86.7992 9.33449C88.9517 9.0602 90.917 7.97585 92.297 6.30104C92.8875 5.68154 93.548 5.13381 94.2666 4.66811C94.7468 4.68947 96.0047 5.86696 96.6814 6.49929C97.9401 8.05703 99.7482 9.07131 101.732 9.33449C104.024 9.04396 106.118 7.89467 107.594 6.11904C108.166 5.58242 109.031 4.76809 109.199 4.66811C110.452 4.66811 110.739 5.08339 111.509 6.19423C112.522 8.10744 114.501 9.31313 116.666 9.33449C117.954 9.33449 118.999 8.28945 118.999 7.00173C118.999 5.7123 117.954 4.66811 116.666 4.66811C116.199 4.66811 116.108 4.63564 115.35 3.54103C114.111 1.31508 111.745 -0.0461235 109.199 0.00087372C107.311 0.263203 105.594 1.23391 104.397 2.7173C103.622 3.4479 102.324 4.66811 101.831 4.67922C101.108 4.24172 100.448 3.70851 99.8652 3.09584C98.4622 1.38686 96.4592 0.280293 94.2658 0.00087372C92.2432 0.276875 90.4009 1.30739 89.1063 2.88478C88.4518 3.58718 87.6956 4.18789 86.8642 4.66811C86.0866 4.22206 85.379 3.66494 84.7647 3.01125C83.4009 1.35524 81.4595 0.280293 79.3318 0.00087372C78.0441 -0.00339874 76.9948 1.03737 76.9905 2.3268C76.9862 3.61452 78.0278 4.66384 79.3164 4.66811Z" fill="url(#paint1_linear)"/>
<path d="M25.6672 107.334H16.3328C15.0442 107.334 14 108.379 14 109.666V123.666C14 124.956 15.0442 126 16.3328 126H25.6672C26.955 126 28 124.956 28 123.666V109.666C28 108.379 26.955 107.334 25.6672 107.334ZM23.3328 121.334H18.6664V112.001H23.3328V121.334Z" fill="url(#paint2_linear)"/>
<path d="M44.3337 107.334H35.0001C33.7107 107.334 32.6665 108.379 32.6665 109.666V123.666C32.6665 124.956 33.7107 126 35.0001 126H44.3337C45.6215 126 46.6665 124.956 46.6665 123.666V109.666C46.6665 108.379 45.6215 107.334 44.3337 107.334ZM41.9993 121.334H37.3329V112.001H41.9993V121.334Z" fill="url(#paint3_linear)"/>
<path d="M63 107.334H53.6664C52.377 107.334 51.3328 108.379 51.3328 109.666V123.666C51.3328 124.956 52.377 126 53.6664 126H63C64.2877 126 65.3328 124.956 65.3328 123.666V109.666C65.3328 108.379 64.2877 107.334 63 107.334ZM60.6655 121.334H55.9991V112.001H60.6655V121.334Z" fill="url(#paint4_linear)"/>
</g>
<defs>
<linearGradient id="paint0_linear" x1="69.9996" y1="14.0009" x2="69.9996" y2="140" gradientUnits="userSpaceOnUse">
<stop stop-color="#FFE601"/>
<stop offset="0.953125" stop-color="#EC9F05"/>
</linearGradient>
<linearGradient id="paint1_linear" x1="97.9948" y1="-0.000305176" x2="97.9948" y2="9.33449" gradientUnits="userSpaceOnUse">
<stop stop-color="#FFE601"/>
<stop offset="0.953125" stop-color="#EC9F05"/>
</linearGradient>
<linearGradient id="paint2_linear" x1="21" y1="107.334" x2="21" y2="126" gradientUnits="userSpaceOnUse">
<stop stop-color="#FFE601"/>
<stop offset="0.953125" stop-color="#EC9F05"/>
</linearGradient>
<linearGradient id="paint3_linear" x1="39.6665" y1="107.334" x2="39.6665" y2="126" gradientUnits="userSpaceOnUse">
<stop stop-color="#FFE601"/>
<stop offset="0.953125" stop-color="#EC9F05"/>
</linearGradient>
<linearGradient id="paint4_linear" x1="58.3328" y1="107.334" x2="58.3328" y2="126" gradientUnits="userSpaceOnUse">
<stop stop-color="#FFE601"/>
<stop offset="0.953125" stop-color="#EC9F05"/>
</linearGradient>
<clipPath id="clip0">
<rect width="140" height="140" fill="white"/>
</clipPath>
</defs>
</svg>
