<svg width="140" height="140" viewBox="0 0 140 140" fill="none" xmlns="http://www.w3.org/2000/svg">
<g clip-path="url(#clip0)">
<path d="M87.2267 80.6189C86.9475 80.6266 86.6454 80.6422 86.32 80.6422C83.0335 80.6963 80.0416 82.0528 77.8716 84.2234C75.7322 86.3551 74.4145 89.285 74.4145 92.5326C74.4145 95.7958 75.7475 98.7645 77.9025 100.919C80.0572 103.067 83.0256 104.407 86.2891 104.407H99.7138C100.846 104.407 101.76 105.322 101.76 106.454C101.76 107.593 100.845 108.508 99.7138 108.508H86.2888C81.8941 108.508 77.8945 106.71 75.0035 103.818C72.1045 100.919 70.314 96.9276 70.314 92.5329C70.314 88.1459 72.0968 84.2004 74.9723 81.325C77.2976 78.9994 80.3434 77.3719 83.7387 76.7906C82.8088 75.6047 82.2507 74.1007 82.2507 72.4732V64.3114C82.2507 62.3736 83.0412 60.6219 84.3124 59.343C85.4674 58.1878 87.0252 57.4358 88.7459 57.3043C88.6994 56.9786 88.6762 56.6374 88.6762 56.2964V50.9168C88.6762 49.5761 89.2187 48.3588 90.1024 47.4756C90.9782 46.5998 92.1951 46.0491 93.5363 46.0491H100.776C101.908 46.0491 102.822 46.9716 102.822 48.1031V56.2961C102.822 56.6371 102.799 56.9781 102.752 57.304C104.481 57.4355 106.031 58.1875 107.186 59.3428C107.697 59.8618 108.131 60.451 108.473 61.0944C110.387 59.792 112.394 58.6061 114.471 57.5362C116.859 56.3114 119.347 55.2341 121.913 54.3195C119.076 48.2505 115.2 42.7626 110.518 38.0811C102.194 29.7639 91.3269 23.9895 79.1734 22.0363C77.9875 25.5784 76.6622 29.5004 75.4374 33.0271C74.3601 36.1353 73.4222 38.763 72.8332 40.2746C71.4611 43.77 69.9498 46.3356 67.8649 48.1496C65.7025 50.033 63.0513 51.033 59.4629 51.3198C58.1376 51.4281 56.7502 51.5752 55.4634 51.9088C54.3704 52.188 53.2622 51.5287 52.9833 50.4361C52.7044 49.3432 53.3631 48.227 54.456 47.9478C55.9985 47.5527 57.5563 47.3588 59.1376 47.235C61.8038 47.0178 63.7108 46.3356 65.1756 45.0568C66.7101 43.7235 67.8884 41.662 69.0201 38.786C69.6559 37.1585 70.5629 34.6082 71.5779 31.6936C72.632 28.6475 73.8723 24.9968 75.0349 21.5165C73.3763 21.3768 71.702 21.2994 70.0045 21.2994C65.005 21.2994 60.1763 21.9349 55.5875 23.1208C51.1619 24.2679 46.9452 25.9345 43.0075 28.0427C42.6974 29.3295 42.0387 30.4845 41.132 31.3912C40.3259 32.1973 39.3262 32.8018 38.2177 33.1507V43.7467C38.2177 45.6843 37.4269 47.4436 36.1559 48.7151C34.8768 49.986 33.1252 50.7768 31.1876 50.7768H28.2033C26.2657 50.7768 24.5061 49.986 23.2349 48.7151C22.7777 48.2576 22.39 47.7463 22.0723 47.1803C19.4834 51.1178 17.3675 55.4042 15.8095 59.9465C15.5461 60.6982 15.3058 61.4578 15.0734 62.2254H31.3582C36.1795 62.2254 39.1791 59.7759 42.4576 56.3574C43.4964 55.2645 44.5661 54.1868 45.6743 53.1639C46.5036 52.3966 47.7984 52.4508 48.5656 53.288C49.3329 54.1174 49.2785 55.4118 48.4492 56.1788C47.3951 57.1479 46.3874 58.1632 45.4028 59.1943C41.2638 63.5116 37.4348 66.325 31.3815 66.325H14.0187C13.1585 70.2781 12.7013 74.3859 12.7013 78.6026C12.7013 87.7335 14.8404 96.3758 18.6461 104.042H36.0159C35.6052 103.15 35.3728 102.158 35.3728 101.112V92.9499C35.3728 91.012 36.1636 89.2527 37.4345 87.9813C38.5895 86.8263 40.1473 86.0669 41.8681 85.9351C41.8216 85.6095 41.7983 85.2764 41.7983 84.9354V79.5482C41.7983 78.2152 42.3408 76.9981 43.2246 76.1143C44.1004 75.2309 45.3172 74.6881 46.6584 74.6881H53.8979C55.0297 74.6881 55.952 75.603 55.952 76.7421V84.9354C55.952 85.2764 55.9211 85.6097 55.8746 85.9351C57.603 86.0669 59.1531 86.8265 60.3081 87.9813C61.5793 89.2527 62.3699 91.012 62.3699 92.9499V101.112C62.3699 103.05 61.5793 104.801 60.3081 106.08C59.502 106.879 58.51 107.491 57.3938 107.832V114.134C58.51 115.35 59.6262 116.466 60.8121 117.296C62.0521 118.149 63.4163 118.699 65.0441 118.715C66.4547 118.722 67.7727 118.854 69.1445 119.211C70.2372 119.49 70.8962 120.598 70.6173 121.691C70.3381 122.784 69.2219 123.443 68.129 123.164C67.1446 122.916 66.0284 122.807 65.0132 122.799C62.4475 122.776 60.3549 121.947 58.4947 120.66C58.0763 120.366 57.6654 120.055 57.2779 119.73C57.0067 121.149 56.3165 122.42 55.3324 123.404C54.0615 124.675 52.3016 125.466 50.364 125.466H47.3786C45.4411 125.466 43.6818 124.675 42.4103 123.404C41.1393 122.133 40.3486 120.373 40.3486 118.436V108.142H20.8938C23.312 112.142 26.1954 115.831 29.4819 119.118C39.8528 129.489 54.1766 135.899 70.004 135.899C72.3911 135.899 74.7476 135.752 77.0649 135.465C76.8634 134.938 76.6695 134.426 76.476 133.93C76.0264 132.76 75.639 131.783 75.3365 131.078C74.9023 130.032 74.4066 128.985 73.8485 128C73.2904 127.016 73.6314 125.768 74.6158 125.21C75.6004 124.652 76.8481 124.993 77.3985 125.977C78.0499 127.117 78.6 128.287 79.1037 129.496C79.4447 130.295 79.8398 131.302 80.2896 132.457C80.5608 133.155 80.8633 133.946 81.1886 134.806C92.5204 132.566 102.659 126.977 110.518 119.118C113.704 115.932 116.518 112.367 118.89 108.507H108.999C107.867 108.507 106.953 107.592 106.953 106.452C106.953 105.321 107.868 104.406 108.999 104.406H121.176C125.09 96.6473 127.299 87.8809 127.299 78.6029C127.299 71.3713 125.959 64.4495 123.517 58.0858C121.06 58.9542 118.657 59.9848 116.347 61.1789C113.859 62.4578 111.479 63.9149 109.247 65.5504V72.4719C109.247 74.4097 108.457 76.169 107.185 77.4402C106.379 78.2463 105.387 78.8588 104.271 79.1998V89.8032C104.271 91.7334 103.48 93.4929 102.209 94.7641C100.938 96.0351 99.1786 96.8259 97.2411 96.8259H94.2568C92.3192 96.8259 90.5596 96.0351 89.2884 94.7641C88.0175 93.4932 87.2267 91.7334 87.2267 89.8032V80.6189ZM43.9218 89.9823C43.4879 90.0676 42.8524 90.0214 42.4026 90.0214C41.5965 90.0214 40.8681 90.3547 40.3333 90.8816C39.8061 91.4164 39.473 92.1452 39.473 92.9512V101.113C39.473 101.919 39.8063 102.648 40.3333 103.182C40.8681 103.709 41.5965 104.043 42.4026 104.043C43.5344 104.043 44.4488 104.958 44.4488 106.089V118.436C44.4488 119.242 44.7821 119.971 45.309 120.506C45.8438 121.033 46.5725 121.366 47.3784 121.366H50.3627C51.1685 121.366 51.8972 121.033 52.432 120.506C52.9592 119.971 53.2923 119.242 53.2923 118.436V106.089C53.2923 104.957 54.2069 104.043 55.3463 104.043C56.1448 104.043 56.8809 103.709 57.4081 103.182C57.9429 102.648 58.2683 101.919 58.2683 101.113V92.9512C58.2683 92.1452 57.9426 91.4164 57.4081 90.8816C56.8809 90.3547 56.1448 90.0214 55.3463 90.0214C54.858 90.0214 54.2611 90.0599 53.7959 90.0134C52.5171 91.2461 50.781 92.0134 48.8741 92.0134C46.945 92.0131 45.201 91.2379 43.9218 89.9823ZM50.9675 87.0371C51.51 86.4946 51.8433 85.7505 51.8433 84.9365V78.7899H46.6579C46.2469 78.7899 45.8983 79.1386 45.8983 79.5493V84.9365C45.8983 85.7505 46.2316 86.4943 46.7741 87.0371C47.3166 87.5796 48.0532 87.9129 48.8746 87.9129C49.6886 87.9129 50.4327 87.5796 50.9675 87.0371ZM36.7679 10.2471C36.7679 10.588 36.7447 10.9214 36.6982 11.2547C38.4189 11.3788 39.9767 12.1384 41.1317 13.2937C42.4026 14.5646 43.1934 16.3242 43.1934 18.2621V23.362C46.7979 21.6024 50.6036 20.1917 54.5564 19.1688C59.5092 17.882 64.687 17.2 70.0042 17.2C86.9554 17.2 102.31 24.0754 113.417 35.1827C124.532 46.2976 131.4 61.6446 131.4 78.604C131.4 94.9744 124.943 110.5 113.417 122.018C102.31 133.133 86.9554 140 70.0042 140C53.0451 140 37.6981 133.133 26.5832 122.017C15.0575 110.492 8.60083 94.9741 8.60083 78.6034C8.60083 71.7902 9.71673 65.047 11.9258 58.6138C14.0808 52.366 17.2275 46.5607 21.1727 41.3911V33.1513C20.0565 32.8027 19.0568 32.1981 18.2584 31.3917C16.9795 30.1205 16.189 28.3612 16.189 26.4234V18.2618C16.189 16.3239 16.9798 14.5644 18.2584 13.2934C19.4134 12.1382 20.9635 11.3786 22.6919 11.2544C22.6454 10.9211 22.6145 10.5878 22.6145 10.2468V4.86773C22.6145 3.52707 23.1649 2.31 24.0408 1.42652C24.9242 0.55043 26.1413 0 27.4822 0H34.7218C35.8535 0 36.7679 0.922305 36.7679 2.05406V10.2471ZM34.6129 15.324C33.342 16.5566 31.6057 17.3236 29.6911 17.3236C27.7691 17.3236 26.0172 16.5484 24.7459 15.2928C24.312 15.3781 23.6689 15.3319 23.2191 15.3319C22.4206 15.3319 21.6845 15.6652 21.1574 16.1921C20.6225 16.7267 20.2971 17.4554 20.2971 18.2615V26.4234C20.2971 27.2295 20.6225 27.9579 21.1574 28.4927C21.6845 29.0199 22.4206 29.353 23.2191 29.353C24.3508 29.353 25.2731 30.2676 25.2731 31.3991V43.7467C25.2731 44.5525 25.5985 45.2812 26.1334 45.8161C26.6682 46.3433 27.3969 46.6763 28.2027 46.6763H31.187C31.9852 46.6763 32.7216 46.343 33.2488 45.8161C33.7836 45.2812 34.1169 44.5525 34.1169 43.7467V31.3991C34.1169 30.2673 35.0316 29.353 36.1631 29.353C36.9692 29.353 37.6976 29.0196 38.2324 28.4927C38.7596 27.9579 39.0927 27.2295 39.0927 26.4234V18.2618C39.0927 17.4557 38.7593 16.727 38.2324 16.1924C37.6976 15.6652 36.9692 15.3322 36.1631 15.3322C35.6826 15.3319 35.086 15.3705 34.6129 15.324ZM31.7919 12.3476C32.3344 11.8051 32.6677 11.0608 32.6677 10.2468V4.10047H27.4822C27.0636 4.10047 26.7226 4.4491 26.7226 4.86773V10.2471C26.7226 11.0611 27.0559 11.8051 27.5908 12.3479C28.1333 12.8904 28.8776 13.2237 29.6913 13.2237C30.5051 13.2234 31.2491 12.8904 31.7919 12.3476ZM90.7997 61.3501C90.3657 61.4275 89.7303 61.381 89.2805 61.381C88.4744 61.381 87.7459 61.7143 87.2111 62.2489C86.6839 62.7761 86.3509 63.5124 86.3509 64.3109V72.4727C86.3509 73.2788 86.6842 74.0072 87.2111 74.5421C87.7459 75.0769 88.4744 75.4026 89.2805 75.4026C90.4122 75.4026 91.3266 76.3249 91.3266 77.4566V89.804C91.3266 90.6024 91.6599 91.3311 92.1871 91.866C92.722 92.4006 93.4507 92.7265 94.2565 92.7265H97.2408C98.0466 92.7265 98.7753 92.4008 99.3102 91.866C99.8374 91.3311 100.17 90.6024 100.17 89.804V77.4566C100.17 76.3249 101.085 75.4026 102.224 75.4026C103.023 75.4026 103.759 75.0772 104.286 74.5421C104.821 74.0072 105.147 73.2788 105.147 72.4727V64.3109C105.147 63.5124 104.821 62.7761 104.286 62.2489C103.751 61.7143 103.023 61.381 102.224 61.381C101.736 61.381 101.139 61.4195 100.674 61.373C99.3952 62.6134 97.6591 63.373 95.7522 63.373C93.8228 63.373 92.0788 62.598 90.7997 61.3501ZM97.8456 58.3967C98.3881 57.8616 98.7215 57.1175 98.7215 56.2959V50.1493H93.536C93.125 50.1493 92.7764 50.4979 92.7764 50.9165V56.2959C92.7764 57.1175 93.1097 57.8616 93.6522 58.3967C94.187 58.9392 94.9313 59.2725 95.7527 59.2725C96.5665 59.2728 97.3108 58.9395 97.8456 58.3967Z" fill="url(#paint0_linear)"/>
</g>
<defs>
<linearGradient id="paint0_linear" x1="70.0003" y1="0" x2="70.0003" y2="140" gradientUnits="userSpaceOnUse">
<stop stop-color="#FFE601"/>
<stop offset="1" stop-color="#EC9F05"/>
</linearGradient>
<clipPath id="clip0">
<rect width="140" height="140" fill="white"/>
</clipPath>
</defs>
</svg>
