<svg width="194" height="180" viewBox="0 0 194 180" fill="none" xmlns="http://www.w3.org/2000/svg">
<g clip-path="url(#clip0)">
<path d="M76.513 136.079C74.823 135.339 73.4043 134.124 72.5032 132.644L42.525 83.1283C41.5035 81.4457 41.2283 79.552 41.7601 77.8639C42.2918 76.1759 43.5869 74.8316 45.3604 74.1269C47.134 73.4223 49.2406 73.4149 51.217 74.1064C53.1934 74.798 54.8777 76.1317 55.8992 77.8144L82.644 122.13L132.949 112.844C133.911 112.663 134.927 112.659 135.941 112.833C136.954 113.006 137.944 113.353 138.854 113.854C139.763 114.356 140.575 115.001 141.242 115.753C141.908 116.505 142.417 117.349 142.738 118.237C143.125 119.154 143.303 120.109 143.262 121.043C143.221 121.976 142.961 122.867 142.499 123.66C142.037 124.453 141.383 125.131 140.577 125.652C139.772 126.172 138.832 126.524 137.817 126.685L81.5214 137.044C79.8477 137.221 78.0843 136.881 76.513 136.079Z" fill="white" fill-opacity="0.6"/>
<path d="M87.5191 111.039C85.8291 110.3 84.4105 109.085 83.5093 107.605L53.5311 58.089C52.5096 56.4064 52.2344 54.5127 52.7662 52.8246C53.2979 51.1365 54.593 49.7923 56.3665 49.0876C58.1401 48.383 60.2468 48.3756 62.2232 49.0671C64.1996 49.7586 65.8838 51.0924 66.9053 52.7751L93.6501 97.0907L143.955 87.8049C144.917 87.6239 145.934 87.62 146.947 87.7933C147.96 87.9667 148.95 88.3139 149.86 88.8151C150.77 89.3162 151.581 89.9614 152.248 90.7136C152.914 91.4657 153.423 92.31 153.744 93.1979C154.131 94.1151 154.309 95.0702 154.268 96.0033C154.227 96.9364 153.967 97.8274 153.505 98.6205C153.043 99.4136 152.389 100.092 151.584 100.612C150.778 101.133 149.838 101.485 148.824 101.646L92.5275 112.005C90.8538 112.182 89.0904 111.842 87.5191 111.039Z" fill="white" fill-opacity="0.6"/>
<path d="M98.5249 85.9999C96.835 85.2604 95.4163 84.0454 94.5151 82.5658L64.537 33.0497C63.5154 31.3671 63.2403 29.4734 63.772 27.7853C64.3038 26.0972 65.5989 24.753 67.3724 24.0483C69.1459 23.3437 71.2526 23.3363 73.229 24.0278C75.2054 24.7193 76.8896 26.0531 77.9111 27.7358L104.656 72.0514L154.961 62.7656C155.923 62.5846 156.939 62.5807 157.953 62.754C158.966 62.9274 159.956 63.2746 160.866 63.7758C161.775 64.2769 162.587 64.9221 163.254 65.6743C163.92 66.4264 164.429 67.2707 164.75 68.1586C165.137 69.0758 165.315 70.0309 165.274 70.964C165.233 71.8971 164.973 72.7881 164.511 73.5812C164.049 74.3743 163.395 75.0524 162.589 75.5731C161.784 76.0937 160.844 76.4456 159.829 76.6068L103.533 86.9658C101.86 87.1424 100.096 86.8023 98.5249 85.9999Z" fill="white" fill-opacity="0.6"/>
</g>
<defs>
<clipPath id="clip0">
<rect width="155.739" height="127.639" fill="white" transform="translate(51.3608) rotate(23.7277)"/>
</clipPath>
</defs>
</svg>
